<svg xmlns="http://www.w3.org/2000/svg" xml:space="preserve" width="2000" height="196" data-id="lg_ryiT7hUHnLXpGPxB5a" data-version="1" viewBox="0 0 2000 196"><g data-padding="20"><g transform="translate(10 3.506)scale(.96422)"><rect width="441.385" height="217.508" x="627.423" y="-110.535" fill="#ffe8f0" rx="0" ry="0" transform="matrix(.88 0 0 .88 361.76 102.06)"/><path fill="#ff5414" d="M851.194 181.028q1.133.01 2.276-.008v.029l433.777 3.908c9.457.085 17.185-6.47 17.27-14.65l1.58-151.612c.085-8.18-7.505-14.872-16.963-14.957L855.358-.17v.029q-1.144-.04-2.276-.05c-57.864-.521-105.184 39.626-105.706 89.67s45.954 91.028 103.818 91.55m59.798-146.635c.143-13.695 13.095-24.681 28.93-24.54l343.167 3.093a9.985 11.545-89.723 0 1 11.463 10.098l-1.487 142.704c-.057 5.52-5.277 9.947-11.67 9.89l-343.157-3.092c-15.84-.143-28.567-11.365-28.424-25.065Z"/><rect width="326.734" height="101.7" x="582.975" y="-52.417" fill="none" rx="0" ry="0" transform="translate(381.98 102.3)"/><path fill="#001f3f" d="m1010.172 66.403 1.44 17.91-.72.09-5.4-13.59q-.81-2.07-1.76-2.7-.94-.63-3.1-.63h-18.27v27.63h13.05q2.16 0 3.06-.72t1.26-2.79l1.53-7.29h1.08v23.04h-1.08l-1.53-7.29q-.36-2.07-1.26-2.79t-3.06-.72h-13.05v30.51l8.82.72v.72h-23.13v-.72l7.38-.72v-59.22l-7.38-.72v-.72Zm11.07 62.73q-3.42 0-5.63-2.38-2.2-2.39-2.2-6.17 0-4.5 4.09-7.2 4.1-2.7 13.91-4.68v-8.19q0-5.22-1.17-7.24-1.17-2.03-4.05-2.03-2.79 0-4.5 1.49-1.71 1.48-1.71 4l.09 2.43q0 2.25-.86 3.56-.85 1.3-2.38 1.3-1.35 0-2.21-.9-.85-.9-.85-2.34 0-2.16 2.11-4.72 2.12-2.57 5.45-4.28 4.05-2.25 8.37-2.25 2.52 0 4.27.99 1.76.99 2.57 2.79.45 1.17.58 2.88.14 1.71.14 6.57v17.19q0 3.24.63 4.46.63 1.21 2.25 1.21 2.43 0 3.6-1.71l.36.18q-1.08 2.25-2.88 3.47-1.8 1.21-3.87 1.21-2.34 0-3.87-1.39-1.53-1.4-1.71-3.74l-.27-.09q-2.07 2.61-4.77 4.1-2.7 1.48-5.49 1.48m3.87-3.42q1.89 0 3.55-.85 1.67-.86 2.75-2.48v-12.69q-4.68 1.17-7.25 2.34-2.56 1.17-3.64 2.79t-1.08 4.05q0 3.15 1.53 5 1.53 1.84 4.14 1.84m42.39-36.27q1.8 0 3.06 1.22 1.26 1.21 1.26 2.92 0 1.44-.99 2.43t-2.43.99q-.9 0-1.49-.4-.58-.41-1.21-1.22-.63-.72-1.13-1.08-.49-.36-1.21-.36-1.44 0-2.93 1.71-1.48 1.71-2.11 3.96v27.45l7.2.72v.72h-18.54v-.72l5.49-.72v-31.5l-5.31-1.98v-.63l10.17-3.51h.72v7.92q5.04-7.92 9.45-7.92m39.51 37.61 5.49.72v.72h-16.83v-.72l5.49-.72v-22.95q0-3.69-.18-5.35-.18-1.67-.72-2.75-.72-1.53-2.34-2.38-1.62-.86-3.78-.86-4.68 0-8.1 3.87v30.42l5.49.72v.72h-16.83v-.72l5.49-.72v-57.33l-5.31-1.98v-.63l10.44-3.51h.72v31.68q2.79-2.88 5.8-4.36 3.02-1.49 5.99-1.49 2.7 0 4.9 1.17 2.21 1.17 3.29 3.24.63 1.17.81 3.2.18 2.02.18 7.06Zm18.55 2.08q-3.42 0-5.63-2.38-2.2-2.39-2.2-6.17 0-4.5 4.09-7.2 4.1-2.7 13.91-4.68v-8.19q0-5.22-1.17-7.24-1.17-2.03-4.05-2.03-2.79 0-4.5 1.49-1.71 1.48-1.71 4l.09 2.43q0 2.25-.86 3.56-.85 1.3-2.38 1.3-1.35 0-2.21-.9-.85-.9-.85-2.34 0-2.16 2.11-4.72 2.12-2.57 5.45-4.28 4.05-2.25 8.37-2.25 2.52 0 4.27.99 1.76.99 2.57 2.79.45 1.17.58 2.88.14 1.71.14 6.57v17.19q0 3.24.63 4.46.63 1.21 2.25 1.21 2.43 0 3.6-1.71l.36.18q-1.08 2.25-2.88 3.47-1.8 1.21-3.87 1.21-2.34 0-3.87-1.39-1.53-1.4-1.71-3.74l-.27-.09q-2.07 2.61-4.77 4.1-2.7 1.48-5.49 1.48m3.87-3.42q1.89 0 3.55-.85 1.67-.86 2.75-2.48v-12.69q-4.68 1.17-7.25 2.34-2.56 1.17-3.64 2.79t-1.08 4.05q0 3.15 1.53 5 1.53 1.84 4.14 1.84m38.15 3.69q3.42 0 6.34-1.71 2.93-1.71 5-4.95l.27.09v6.12h.54l9.81-4.5v-.45l-4.95-1.08v-59.31h-.72l-10.44 3.51v.63l5.31 1.98v20.79q-3.51-1.08-7.02-1.08-5.58 0-9.95 2.61-4.36 2.61-6.75 7.34-2.38 4.72-2.38 10.75 0 5.49 1.93 9.86 1.94 4.36 5.36 6.88t7.65 2.52m3.15-3.6q-5.49 0-8.6-4.54-3.1-4.55-3.1-12.38 0-8.37 3.46-13.45 3.47-5.09 9.14-5.09 3.42 0 5.26 2.12 1.85 2.11 1.85 6.07v23.04q-1.17 1.98-3.29 3.11-2.11 1.12-4.72 1.12m26.56-1.63q0-1.98 1.3-3.28 1.31-1.31 3.38-1.31t3.33 1.31q1.26 1.3 1.26 3.28t-1.26 3.33-3.33 1.35-3.38-1.35q-1.3-1.35-1.3-3.33m20.87-47.69q0-1.89 1.21-3.1 1.22-1.22 3.11-1.22t3.1 1.22q1.22 1.21 1.22 3.1t-1.22 3.11q-1.21 1.21-3.1 1.21t-3.11-1.21q-1.21-1.22-1.21-3.11m7.74 50.58v-37.62h-.72l-10.44 3.51v.63l5.31 1.98v31.5l-5.49.72v.72h16.83v-.72Zm28.44-37.62q5.22 0 9.27 2.52t6.3 7.07q2.25 4.54 2.25 10.39t-2.25 10.4q-2.25 4.54-6.3 7.06t-9.27 2.52-9.27-2.52-6.3-7.06q-2.25-4.55-2.25-10.4t2.25-10.39q2.25-4.55 6.3-7.07t9.27-2.52m-11.16 19.98q0 9 2.97 14.04t8.19 5.04 8.19-5.04 2.97-14.04-2.97-14.04-8.19-5.04-8.19 5.04-2.97 14.04"/><path fill="#fff" d="m846.817 50.593-5.233 11.28a2.904 3 0 0 1-5.241-2.584l5.232-11.28a2.904 3 0 1 1 5.242 2.585m2.13 18.678 8.68-8.31a2.948 3.046 0 0 0-4.003-4.465l-8.682 8.31a2.948 3.046 0 0 0 4.004 4.465m4.641 9.277 11.32-4.53a2.926 3.022 0 1 0-2.101-5.64l-11.32 4.568a2.926 3.022 0 1 0 2.101 5.64Zm-70.16 38.146a3.13 3.234 0 1 1 4.55-4.4l.7.78 28.547-55.722-1.82-2.02a3.13 3.234 0 1 1 4.55-4.4l30.712 34.226h-1.037c-14.642.018-26.718 11.855-27.5 26.959l-8.482 3.807 1.356 1.513a6.916 7.144 0 0 0 7.635 1.767 27.3 28.2 0 0 0 1.948 6.167 13.195 13.63 0 0 1-14.17-3.535l-2.847-3.177-9.865 4.428 1.074 1.203a3.13 3.234 0 0 1-4.55 4.399Zm14.641-5.79 28.265-36.35a1.765 1.824 0 0 0-.082-2.388l-5.042-5.64a1.074 1.11 0 0 0-1.729.235l-22.267 43.56a.519.536 0 0 0 .855.582m74.247 2.67a22.686 23.434 0 1 1-22.686-23.425c12.511.036 22.646 10.5 22.686 23.425m-34.098 4.108a38.22 39.48 0 0 1 0-8.216h-5.46a16.744 17.296 0 0 0 0 8.216Zm3.495 11.815a25.48 26.32 0 0 1-2.849-7.68h-4.621a17.29 17.86 0 0 0 7.47 7.68m0-31.847a17.29 17.86 0 0 0-7.47 7.68h4.622a25.48 26.32 0 0 1 2.849-7.68m5.915 24.168h-4.66c1.038 4.2 2.794 7.238 4.66 8.535Zm0-12.352h-5.387a34.58 35.72 0 0 0 0 8.216h5.387Zm0-12.671c-1.866 1.297-3.64 4.343-4.66 8.535h4.66Zm9.919.855a25.48 26.32 0 0 1 2.848 7.68h4.623a17.29 17.86 0 0 0-7.471-7.68m-5.915 7.68h4.659c-1.038-4.202-2.794-7.238-4.66-8.535Zm4.659 16.488h-4.66v8.535c1.866-1.297 3.622-4.334 4.66-8.535m.91-8.244a34.58 35.72 0 0 0-.182-4.061h-5.387v8.216h5.387a35.49 36.66 0 0 0 .227-4.155Zm7.771 8.244h-4.577a25.48 26.32 0 0 1-2.848 7.68 17.29 17.86 0 0 0 7.47-7.68Zm1.53-12.305h-5.46a38.22 39.48 0 0 1 0 8.216h5.46a16.744 17.296 0 0 0 0-8.216"/></g><path fill="transparent" stroke="transparent" d="M720.5 0h559v196h-559z"/></g></svg>